<svg width="205.167" height="37.473" xmlns="http://www.w3.org/2000/svg">

 <g>
  <title>background</title>
  <rect fill="none" id="canvas_background" height="402" width="582" y="-1" x="-1"/>
 </g>
 <g>
  <title>Layer 1</title>
  <g display="none" id="Layer_4">
   <path id="svg_1" d="m170.148,17.94c-3.716,-0.685 -5.986,-1.312 -7.348,-2.673c-1.36,-1.36 -1.988,-3.63 -2.673,-7.348c-0.058,-0.307 -0.321,-0.528 -0.636,-0.528c-0.312,0 -0.58,0.225 -0.635,0.528c-0.685,3.718 -1.312,5.986 -2.673,7.348c-1.361,1.36 -3.633,1.988 -7.348,2.673c-0.306,0.059 -0.528,0.322 -0.528,0.637c0,0.312 0.224,0.579 0.528,0.635c3.715,0.685 5.986,1.313 7.348,2.673c1.359,1.36 1.988,3.632 2.673,7.348c0.055,0.307 0.321,0.528 0.635,0.528c0.312,0 0.578,-0.224 0.636,-0.528c0.685,-3.716 1.312,-5.985 2.673,-7.348c1.36,-1.357 3.632,-1.988 7.348,-2.673c0.307,-0.056 0.528,-0.321 0.528,-0.635s-0.221,-0.579 -0.528,-0.637z" fill="#FFFFFF"/>
  </g>
  <g display="none" id="Layer_2">
   <path id="svg_2" d="m-13.007,-45.615c6.705,-9.825 10.625,-21.703 10.625,-34.496c0,-33.843 -27.435,-61.275 -61.277,-61.275c-33.842,0 -61.276,27.435 -61.276,61.275c0,33.843 27.435,61.276 61.276,61.276c14.613,0 28.031,-5.115 38.562,-13.652" stroke-miterlimit="10" stroke-linecap="round" stroke-width="8" stroke="#000000" fill="none"/>
  </g>
  <text font-weight="bold" xml:space="preserve" text-anchor="start" font-family="Helvetica, Arial, sans-serif" font-size="38" id="svg_12" y="28.486478" x="-0.291286" stroke-opacity="null" stroke-width="0" stroke="null" fill="#000000">Signalbind</text>
  <metadata transform="matrix(0.004265730091746411,0,0,0.004265730091746411,0,0) ">Created by potrace 1.12, written by Peter Selinger 2001-2015</metadata>
  <g stroke="null" id="svg_18">
   <g id="svg_16" fill="#FFFFFF" transform="matrix(0.001464297647575394,0,0,-0.0013995929938454437,-214.37572703162925,-35.759181712918945) ">
    <path stroke="null" fill="#000000" id="svg_17" d="m279062.942261,-38250.553528c-10,-12 -7,-28 13,-82c14,-37 35,-95 46,-128c18,-55 87,-249 125,-353c8,-23 68,-123 133,-222c65,-100 123,-188 128,-198c11,-18 285,-435 290,-440c1,-2 47,-19 101,-38c133,-46 155,-57 152,-71c-2,-7 -43,-43 -93,-81c-50,-38 -91,-77 -93,-88c-2,-14 17,-36 62,-74c36,-30 65,-61 65,-69c1,-7 -31,-68 -69,-135l-70,-122l14,-219c8,-121 12,-224 8,-230c-4,-6 -83,-83 -177,-171c-93,-88 -175,-171 -182,-185c-6,-13 -16,-98 -22,-189c-6,-91 -18,-253 -27,-360c-8,-107 -19,-247 -24,-310c-5,-63 -18,-232 -29,-375c-25,-320 -26,-334 -5,-342c10,-4 59,15 122,46c57,29 106,50 108,49c3,-4 28,-98 44,-173c5,-22 21,-89 35,-150c24,-104 49,-219 63,-294c11,-53 30,-59 96,-28c31,15 60,27 64,27c4,0 23,-75 41,-168c18,-92 37,-185 41,-207c21,-108 30,-147 35,-156c10,-16 42,-10 120,21c42,16 84,30 94,30c12,0 50,-50 121,-157c100,-153 111,-167 384,-441c165,-166 288,-282 299,-282c10,0 91,66 179,148c89,81 187,171 220,201c32,29 64,51 72,48c7,-3 95,-135 196,-294c181,-284 307,-481 385,-598c31,-46 47,-61 68,-63c19,-2 29,2 34,15c8,22 46,74 144,194c42,52 190,236 329,409c139,173 254,317 256,319c7,8 41,-29 201,-221c91,-109 171,-198 178,-198c14,0 109,100 387,405c125,138 188,218 271,343c60,90 115,166 123,169c8,3 52,-9 97,-26c92,-34 110,-37 124,-19c9,11 48,196 94,444c17,91 19,93 81,61c29,-15 59,-27 65,-27c20,0 30,28 63,176c17,76 35,155 40,174c16,61 60,249 60,259c0,5 4,21 10,36l10,25l100,-50c102,-51 134,-60 143,-37c4,12 -4,122 -23,302c-5,55 -17,177 -26,270c-8,94 -19,204 -24,245c-4,41 -17,176 -29,300c-11,124 -25,260 -31,303l-10,78l-98,107c-253,274 -281,307 -282,332c0,14 7,86 16,160c8,74 17,169 21,210l5,75l-87,129c-85,125 -87,130 -79,170c7,38 7,82 1,235l-2,55l110,36l110,36l100,150c433,648 441,662 525,904c12,36 44,127 72,203c27,75 48,147 46,160l-3,22l-799,3c-440,1 -804,-2 -808,-6c-5,-5 -50,-132 -102,-283l-93,-274l-99,-33c-54,-18 -190,-62 -301,-98l-202,-64l-801,0c-502,0 -807,4 -818,10c-9,5 -110,46 -224,91c-113,44 -213,86 -220,92c-8,7 -27,44 -42,82c-16,39 -34,84 -41,100c-11,26 -75,180 -121,295c-8,19 -20,46 -27,60l-13,25l-766,3c-665,2 -767,0 -778,-13zm1515,-91c11,-22 25,-54 32,-70c6,-16 44,-109 84,-207c39,-98 70,-179 68,-181c-2,-3 -69,-11 -149,-20c-80,-9 -186,-21 -236,-27l-90,-12l-140,73c-242,127 -645,340 -754,399c-58,31 -113,59 -122,63c-62,25 7,28 635,26l652,-3l20,-41zm4425,37c0,-4 -46,-35 -102,-68c-57,-33 -258,-151 -448,-263c-190,-111 -355,-207 -368,-213c-15,-7 -47,-7 -105,1c-45,6 -151,19 -234,28c-104,11 -153,21 -153,29c0,25 161,479 173,487c17,11 1237,10 1237,-1zm234,0c4,-5 -12,-58 -33,-118c-22,-59 -63,-175 -93,-258c-50,-139 -63,-164 -182,-345c-70,-107 -171,-262 -224,-343c-54,-81 -114,-172 -134,-201l-37,-54l-163,-52c-90,-29 -195,-63 -234,-75l-72,-23l-148,44c-82,24 -169,50 -194,58c-25,8 -121,35 -215,61c-93,26 -174,51 -178,55c-8,7 40,47 428,358c104,83 223,179 263,212c68,56 144,103 512,318c80,47 177,104 215,127c39,23 102,60 140,82c39,23 108,63 155,91c47,27 94,54 105,60c24,14 82,15 89,3zm-5699,-236c33,-18 177,-95 320,-170c143,-75 291,-153 328,-173c40,-21 107,-72 161,-122c460,-426 594,-551 616,-568c14,-11 23,-23 20,-26c-3,-3 -53,-17 -110,-31c-58,-14 -121,-30 -140,-36c-33,-9 -250,-60 -335,-79c-22,-5 -55,-14 -73,-19c-28,-9 -55,-2 -195,45c-89,30 -189,64 -222,75c-68,23 -45,-5 -247,304c-69,105 -167,255 -220,335c-52,80 -102,159 -111,175c-21,37 -167,449 -167,471c0,14 121,-44 375,-181zm1487,-409c116,-47 214,-88 219,-93c12,-12 -92,-273 -109,-273c-11,0 -134,65 -659,352c-69,37 -90,58 -60,58c32,0 332,32 336,36c15,15 88,-6 273,-80zm2758,59c80,-8 151,-15 158,-15c29,0 8,-21 -55,-56c-38,-20 -129,-71 -203,-112c-247,-137 -304,-169 -365,-202c-33,-17 -79,-43 -102,-57c-23,-13 -47,-22 -52,-19c-9,6 -26,36 -111,191c-18,33 -40,70 -48,83c-9,13 -11,27 -6,32c5,4 79,31 164,59c85,27 202,66 260,85c86,29 115,35 160,30c30,-2 120,-11 200,-19zm-1630,-539c0,-206 -3,-377 -7,-379c-5,-2 -91,37 -193,87c-102,50 -255,124 -340,165c-299,142 -400,195 -400,208c0,7 21,65 46,130c26,65 50,128 55,141l9,22l415,0l415,0l0,-374zm783,337c62,-100 158,-285 154,-296c-3,-7 -130,-73 -283,-147c-154,-73 -346,-167 -428,-207c-106,-53 -152,-70 -157,-62c-8,14 -10,697 -2,729c5,20 12,20 349,20l344,0l23,-37zm-2192,-94c101,-56 226,-124 277,-151c50,-27 92,-53 92,-56c0,-21 -55,-144 -66,-149c-8,-3 -86,62 -191,159c-244,224 -320,298 -307,298c6,0 93,-46 195,-101zm2915,-2c-70,-57 -273,-221 -334,-269c-33,-27 -64,-48 -70,-48c-12,0 -54,69 -50,81c4,13 459,267 478,268c8,0 -3,-14 -24,-32zm-2296,-323c230,-112 361,-176 435,-209c123,-56 41,-43 -450,71c-33,8 -82,19 -109,24c-107,22 -128,30 -121,48c31,85 59,152 64,152c3,0 85,-39 181,-86zm1800,16c25,-50 25,-57 -2,-63c-25,-5 -303,-85 -408,-116c-91,-28 -126,-35 -117,-25c11,12 479,242 494,243c7,1 22,-17 33,-39zm175,-138c11,-3 90,-25 175,-49c174,-50 210,-60 328,-93c45,-13 82,-27 82,-31c0,-4 -60,-26 -132,-49c-73,-22 -153,-47 -178,-55c-229,-72 -312,-96 -318,-90c-8,7 -21,366 -14,378c2,5 11,5 21,2c9,-4 25,-10 36,-13zm-227,-22c-1,-5 -48,-58 -104,-117c-55,-59 -124,-135 -154,-168c-29,-33 -106,-116 -170,-185c-64,-69 -145,-156 -180,-195c-257,-282 -274,-297 -283,-273c-9,23 -4,685 6,694c4,4 214,67 332,99c28,8 97,28 155,45c58,17 128,37 155,45c28,8 88,26 135,39c95,28 113,30 108,16zm-2082,-21c13,-22 34,-313 22,-320c-10,-6 -42,2 -138,34c-25,9 -85,27 -135,42c-201,60 -320,98 -329,105c-11,10 67,32 379,106c33,7 85,20 115,28c71,18 77,18 86,5zm2184,-81c0,-51 3,-136 6,-188l6,-95l-98,-80c-130,-106 -577,-478 -633,-527c-44,-38 -44,-38 -132,-38c-49,0 -89,3 -89,8c0,4 46,57 103,118c56,60 199,215 317,344c118,129 251,273 295,320c44,47 109,118 144,158c35,39 68,72 72,72c5,0 9,-42 9,-92zm-1895,47c39,-9 86,-20 105,-25c107,-24 284,-64 345,-77c39,-8 86,-18 105,-23c19,-4 80,-17 135,-30c55,-12 110,-26 123,-31l22,-9l0,-365c0,-290 -3,-365 -12,-359c-24,15 -948,928 -948,937c0,10 7,9 125,-18zm390,-595c199,-195 364,-361 369,-367c5,-10 -13,-13 -81,-13l-88,0l-301,253c-166,138 -338,281 -382,317c-44,36 -84,72 -88,80c-8,18 -31,299 -25,306c5,5 73,-61 596,-576zm2587,469c11,-98 9,-161 -5,-157c-21,5 -158,161 -149,170c10,10 124,47 137,44c6,-2 13,-27 17,-57zm-4089,19c16,-12 12,-19 -39,-78c-31,-36 -72,-82 -91,-103l-35,-39l-39,38c-22,21 -38,43 -36,49c2,5 42,40 88,77c85,68 119,80 152,56zm130,-90c19,-24 45,-54 57,-68c12,-14 52,-60 88,-104c37,-43 104,-121 150,-173c71,-83 92,-113 79,-113c-2,0 -100,47 -218,104c-118,57 -251,121 -297,142c-47,22 -81,44 -80,51c4,16 168,203 178,203c4,0 23,-19 43,-42zm3821,-55c47,-54 86,-102 86,-109c0,-6 -30,-25 -67,-42c-86,-39 -482,-229 -506,-243c-37,-21 -28,1 24,64c156,186 365,427 370,427c3,0 45,-44 93,-97zm-3674,63c25,-8 113,-35 195,-61c83,-25 188,-57 235,-71c143,-43 142,-42 134,-78c-10,-48 -65,-220 -73,-228c-3,-3 -42,-9 -86,-13l-80,-7l-190,223c-104,122 -194,228 -198,235c-10,18 5,18 63,0zm3460,8c0,-3 -59,-74 -131,-157c-72,-84 -161,-187 -197,-229c-73,-86 -78,-87 -191,-70l-44,7l-33,105c-19,57 -36,117 -39,131c-7,31 -47,15 370,145c83,25 168,52 190,59c44,14 75,18 75,9zm-2684,-341c203,-169 477,-396 499,-416c20,-17 19,-18 -30,-14c-96,8 -289,38 -309,49c-12,6 -99,65 -193,132c-125,87 -173,126 -173,140c0,28 60,216 69,216c4,0 65,-48 137,-107zm2020,-8c18,-61 30,-113 26,-117c-4,-4 -88,-64 -187,-134l-180,-128l-120,-18c-179,-28 -228,-32 -224,-21c2,6 51,50 109,97c137,113 164,135 359,299c90,76 169,136 174,134c5,-1 25,-52 43,-112zm-3074,41c342,-164 412,-200 396,-203c-9,-2 -97,5 -195,17c-98,11 -218,25 -268,30c-135,15 -175,21 -180,31c-7,10 93,189 105,189c6,0 69,-29 142,-64zm4157,-23c51,-73 72,-113 59,-113c-8,0 -295,-31 -368,-40c-313,-37 -344,-38 -270,-3c25,12 146,71 270,132c124,61 230,110 237,111c6,0 39,-39 72,-87zm-4324,-188c39,-3 138,-15 220,-25c83,-10 219,-26 302,-36l153,-17l36,-54c20,-30 34,-57 31,-60c-3,-3 -52,-14 -109,-24c-57,-11 -119,-24 -138,-28c-39,-10 -57,-14 -347,-71c-112,-22 -212,-40 -223,-40c-16,0 -20,7 -21,38c0,20 -4,100 -8,177c-5,77 -6,144 -4,148c3,4 12,6 21,3c10,-2 49,-7 87,-11zm4415,-7c0,-19 -29,-277 -35,-315c-4,-24 -11,-33 -26,-33c-16,0 -414,76 -544,104c-16,4 -83,17 -148,30c-65,13 -121,26 -124,30c-11,10 66,116 85,116c18,0 270,28 527,59c188,23 265,25 265,9zm-3612,-270c3,-13 -24,-30 -114,-73c-64,-30 -118,-55 -119,-55c-2,0 -74,-34 -161,-76c-88,-42 -186,-89 -219,-104c-33,-15 -99,-46 -146,-69c-48,-22 -94,-41 -102,-41c-12,0 -16,25 -22,127c-7,115 -6,128 11,140c10,7 26,13 35,13c10,0 120,21 246,46c125,25 248,50 273,55c89,16 196,38 235,48c54,13 79,9 83,-11zm2798,2c54,-11 124,-25 154,-31c30,-6 71,-14 90,-19c19,-5 134,-27 255,-50c121,-23 231,-46 244,-51c23,-9 24,-13 17,-77c-3,-37 -6,-95 -6,-129c0,-48 -3,-63 -14,-63c-15,0 -36,10 -476,217c-146,69 -293,138 -327,154c-57,26 -74,44 -56,62c9,9 7,10 119,-13zm-2026,-31c19,-5 55,-9 80,-9c25,0 52,-5 60,-10c14,-9 -28,-31 -245,-130c-27,-13 -126,-58 -220,-101c-93,-44 -175,-79 -182,-79c-8,0 -13,14 -13,40c0,45 -16,30 234,216l130,96l60,-7c34,-4 77,-11 96,-16zm1468,-115c181,-136 182,-137 182,-175c0,-26 -4,-39 -14,-39c-7,0 -64,24 -127,54c-63,29 -136,64 -164,76c-27,12 -88,40 -135,62c-47,22 -115,54 -153,71c-37,17 -66,35 -64,41c2,6 32,14 68,18c35,4 89,11 119,16c103,18 94,21 288,-124zm-930,4c-3,-67 -8,-79 -54,-153c-28,-44 -79,-126 -112,-181l-62,-102l0,-155c0,-86 -3,-158 -8,-161c-4,-2 -68,33 -142,78c-74,45 -241,146 -370,225c-129,78 -241,148 -248,155c-10,10 1,19 60,46c40,18 107,49 148,68c41,19 107,49 145,67c194,89 246,113 315,147c74,36 76,37 204,37l128,1l-4,-72zm413,18c63,-29 234,-109 382,-176c147,-67 267,-125 267,-129c0,-3 -66,-46 -148,-95c-81,-49 -176,-108 -212,-131c-153,-98 -396,-245 -404,-245c-2,0 -6,71 -8,158l-3,157l-53,90c-30,50 -79,130 -109,178c-49,78 -56,96 -59,150c-6,100 -10,97 120,97l114,0l113,-54zm-1659,27c10,-9 18,-20 18,-25c0,-5 -57,-46 -127,-91c-133,-87 -315,-206 -586,-384c-87,-58 -164,-102 -171,-100c-6,3 -25,43 -40,91c-32,95 -30,104 27,127c18,7 119,55 226,106c106,51 195,93 197,93c3,0 277,130 369,174c61,30 64,30 87,9zm2744,-62c93,-43 207,-96 254,-119c204,-96 330,-156 403,-189c60,-29 77,-41 76,-57c0,-31 -54,-169 -67,-174c-7,-2 -38,14 -69,36c-32,22 -110,73 -173,114c-63,41 -194,126 -290,190c-96,63 -214,140 -262,171c-49,32 -88,60 -88,63c0,15 22,44 34,44c8,0 89,-35 182,-79zm-2647,-82c24,-40 31,-61 31,-103c0,-58 -8,-69 -121,-157c-62,-49 -454,-367 -618,-501c-58,-48 -109,-84 -113,-80c-14,14 -117,296 -111,305c5,8 175,121 573,381c91,60 199,130 240,157c41,27 77,49 81,49c3,0 20,-23 38,-51zm2618,-92c253,-166 545,-358 621,-407c28,-18 52,-36 52,-39c-1,-21 -110,-296 -119,-299c-14,-5 -57,30 -480,376c-51,42 -112,91 -135,109c-22,17 -84,67 -136,110l-95,79l-3,61c-2,46 2,70 14,90c24,39 46,63 55,63c5,0 106,-65 226,-143zm-3729,49c7,-35 12,-101 12,-146l0,-83l-37,7c-21,4 -78,13 -128,22c-49,8 -97,17 -105,20c-11,4 21,41 110,125c69,65 128,119 131,119c3,0 11,-29 17,-64zm4718,-78c65,-73 122,-134 127,-136c4,-2 7,-10 7,-18c0,-11 -22,-14 -117,-13c-165,1 -167,2 -171,69c-4,60 17,230 28,230c3,0 60,-60 126,-132zm-2328,-93l93,-155l-3,-297l-3,-298l-90,-167c-49,-92 -95,-168 -100,-168c-6,0 -25,28 -43,63c-17,34 -59,114 -92,177l-60,115l0,285c0,253 2,289 18,316c78,138 169,283 177,283c6,1 52,-69 103,-154zm-1065,-102c258,-157 287,-176 287,-186c0,-10 -83,-147 -251,-417c-43,-69 -100,-161 -128,-205l-50,-80l-193,-63c-106,-34 -256,-82 -332,-107c-77,-25 -143,-42 -147,-38c-9,11 -176,431 -184,466c-5,20 -3,32 8,40c8,7 106,86 217,177c111,91 246,200 299,243c53,42 123,99 155,125c32,26 82,66 110,89c28,24 55,43 59,43c5,0 72,-39 150,-87zm2152,30c143,-115 322,-261 399,-323c44,-36 131,-106 193,-157c154,-124 183,-150 183,-164c0,-21 -185,-489 -193,-489c-3,0 -177,56 -490,157l-179,58l-210,350c-135,227 -207,354 -201,362c9,15 403,262 418,262c6,0 42,-25 80,-56zm-3613,-27c81,-13 151,-27 156,-30c18,-11 73,-177 66,-200c-3,-11 -21,-68 -39,-126c-18,-58 -52,-166 -75,-240c-23,-74 -56,-182 -75,-240c-18,-58 -50,-159 -70,-225c-19,-66 -40,-128 -45,-137c-6,-10 -10,-24 -10,-33c0,-8 -7,-32 -15,-53c-14,-33 -26,-44 -95,-77c-44,-21 -82,-36 -85,-33c-5,4 12,267 36,558c5,63 13,180 19,260c5,80 12,161 15,180c3,19 10,105 15,190c14,206 18,230 38,230c10,0 83,-11 164,-24zm5047,-59c9,-22 33,-254 51,-472c4,-49 19,-211 34,-360c44,-449 48,-496 42,-503c-8,-7 -151,64 -164,82c-5,6 -21,45 -35,86c-14,41 -37,107 -51,145c-14,39 -71,201 -126,360c-56,160 -119,339 -141,399l-40,110l33,88l33,88l178,0c177,0 178,0 186,-23zm-3049,-271l165,-103l5,-124l5,-124l110,-200l109,-200l4,-202c2,-112 0,-203 -3,-203c-10,0 -86,41 -150,80c-33,20 -94,56 -135,80c-41,24 -106,62 -145,85c-38,23 -104,61 -145,85c-41,24 -95,56 -120,71c-49,30 -91,54 -217,126c-46,26 -83,51 -83,55c0,5 22,44 48,86c27,42 120,193 208,334c87,142 164,258 169,258c6,-1 84,-47 175,-104zm1252,-231c108,-182 198,-335 198,-340c0,-9 -150,-99 -704,-423c-242,-141 -265,-154 -275,-148c-5,3 -7,92 -5,207l4,201l51,97c29,53 77,143 108,201l56,105l5,114l5,113l165,104c91,57 171,103 179,101c8,-1 104,-151 213,-332zm1379,120c22,-61 57,-162 78,-225c21,-63 46,-133 54,-155c9,-22 39,-107 67,-190c28,-82 67,-191 85,-242l34,-92l-24,-103c-13,-57 -30,-125 -36,-153c-6,-27 -15,-63 -20,-80c-4,-16 -16,-64 -24,-105c-32,-146 -39,-175 -45,-183c-8,-9 -72,17 -87,35c-11,13 -32,94 -55,206l-12,64l-135,96c-73,54 -157,114 -185,135c-28,20 -57,40 -64,43c-10,5 -177,-140 -251,-220c-27,-29 -47,-32 -76,-13c-11,8 -74,42 -140,77c-66,35 -124,66 -130,70c-5,4 -44,25 -85,47c-41,22 -112,60 -157,84c-75,40 -84,42 -98,28c-13,-12 -81,-193 -135,-359c-4,-14 -37,-108 -73,-210c-36,-102 -117,-336 -182,-520c-64,-184 -128,-366 -141,-405c-14,-38 -36,-101 -49,-140c-13,-38 -51,-149 -85,-245c-50,-143 -155,-446 -176,-510c-4,-12 -7,-12 -13,-1c-10,16 -13,1978 -3,2075l7,70l70,42c39,23 272,160 518,304l449,262l41,-15c23,-9 157,-52 297,-97c140,-45 283,-91 318,-103c76,-24 76,-24 117,83c15,41 65,170 110,285c46,116 105,270 131,342c27,73 53,131 58,130c5,-2 26,-52 47,-112zm-4304,-25c25,-69 51,-138 58,-155c7,-16 48,-120 90,-230c116,-302 125,-323 141,-329c8,-3 34,1 57,8c23,8 182,60 354,115l312,102l73,-42c152,-87 184,-106 225,-132c24,-15 45,-27 48,-27c3,0 34,-17 68,-38c34,-21 96,-58 137,-82c41,-24 107,-62 145,-85c39,-23 104,-61 145,-85c125,-72 205,-122 212,-134c12,-17 10,-2092 -2,-2080c-5,5 -27,61 -49,124c-62,180 -173,497 -246,705c-37,105 -70,201 -75,215c-4,14 -36,104 -70,200c-34,96 -83,238 -110,315c-116,337 -168,483 -172,491c-3,5 -27,73 -53,152c-29,88 -53,146 -63,149c-8,4 -32,-3 -51,-14c-20,-11 -88,-50 -151,-86c-63,-35 -180,-101 -259,-146c-78,-44 -147,-81 -152,-81c-6,0 -76,56 -156,125c-81,69 -152,124 -158,122c-15,-6 -335,-234 -365,-261c-22,-19 -29,-40 -43,-127c-10,-57 -20,-117 -23,-132c-4,-21 -17,-34 -50,-49c-24,-12 -46,-19 -49,-16c-5,4 -82,328 -106,443c-4,22 -16,74 -25,115l-17,75l37,120c21,66 46,145 56,175c10,30 37,116 60,190c111,359 165,520 173,517c5,-1 29,-59 54,-127zm1241,-1061c24,-68 63,-180 87,-249c24,-69 71,-204 105,-300c34,-96 68,-193 75,-215c7,-22 41,-119 75,-215c34,-96 84,-238 111,-315c26,-77 76,-219 110,-315c138,-395 156,-450 148,-450c-5,0 -15,10 -23,22c-7,13 -110,174 -228,358c-118,184 -260,409 -315,500c-115,189 -222,365 -451,738c-89,145 -162,266 -162,269c0,4 -8,15 -17,25c-10,11 -13,22 -7,27c5,5 95,58 199,117c105,59 199,113 210,120c11,7 24,12 30,10c5,-1 30,-59 53,-127zm1879,93c37,-22 104,-58 148,-82c316,-169 335,-181 326,-199c-18,-33 -646,-1058 -709,-1156c-14,-22 -86,-116 -161,-209c-75,-92 -145,-180 -156,-195c-71,-96 -317,-392 -322,-387c-3,3 -1,18 5,33c33,90 106,298 126,358c13,39 52,149 86,245c34,96 70,202 81,235c11,33 24,69 29,80c5,11 34,94 65,185c31,91 84,242 117,335c57,165 151,434 168,485c6,20 82,233 105,298c7,18 17,15 92,-26zm-2861,-119c-3,-27 -10,-109 -16,-183c-6,-74 -15,-178 -20,-230c-5,-52 -15,-171 -21,-263c-9,-128 -16,-173 -28,-186c-20,-22 -132,-64 -142,-54c-10,10 -101,468 -101,509c0,53 33,228 47,250c14,22 261,204 277,204c5,0 6,-21 4,-47zm197,-49c119,-102 123,-108 151,-229c8,-38 29,-128 46,-200c17,-71 38,-159 46,-195c8,-36 21,-92 29,-125c8,-33 26,-109 40,-170c37,-158 46,-196 56,-230c5,-16 25,-102 45,-190c19,-88 42,-184 50,-214c9,-29 13,-56 9,-59c-5,-5 -152,137 -370,358c-57,58 -119,139 -195,252l-110,167l15,198c9,109 20,250 25,313c6,63 15,178 20,255c11,141 14,165 25,165c4,0 57,-43 118,-96zm3467,-144c12,-124 25,-268 31,-320c5,-52 14,-142 18,-200c5,-58 12,-117 16,-132c6,-24 -10,-53 -118,-215c-96,-145 -156,-222 -263,-338c-75,-82 -162,-176 -191,-209c-30,-32 -57,-56 -60,-53c-3,3 11,57 30,119c20,62 50,160 67,218c18,58 40,130 50,160c10,30 37,116 60,190c56,183 129,416 144,465c7,22 23,69 34,105c11,36 40,126 62,200c42,135 66,212 76,239c13,38 25,-22 44,-229zm201,138l135,-97l24,-108c13,-59 24,-128 23,-153c-1,-49 -86,-496 -96,-507c-6,-6 -28,2 -123,42c-35,15 -34,12 -53,230c-5,55 -12,120 -15,145c-9,62 -46,492 -46,525c0,15 3,25 8,23c4,-1 68,-47 143,-100zm-391,-150c-33,-106 -67,-216 -95,-303c-14,-42 -109,-348 -210,-675c-39,-125 -75,-240 -105,-335c-16,-49 -39,-120 -50,-158c-12,-37 -25,-67 -30,-67c-5,0 -17,11 -27,24c-10,13 -75,90 -144,172c-69,82 -129,155 -133,162c-5,8 39,89 120,220c70,114 191,311 269,437c78,127 188,306 245,398c95,154 180,262 188,238c2,-6 -11,-56 -28,-113zm-2913,-153c74,-121 172,-281 217,-355c46,-74 152,-247 235,-383c84,-137 151,-252 149,-256c-5,-14 -386,-361 -395,-361c-12,0 -40,109 -134,510c-27,118 -51,221 -79,335c-17,72 -35,148 -40,170c-13,61 -44,194 -84,358c-20,81 -36,158 -36,171c0,25 9,38 23,33c5,-1 70,-102 144,-222z"/>
   </g>
  </g>
 </g>
</svg>